<svg width="229" height="226" viewBox="0 0 229 226" fill="none" xmlns="http://www.w3.org/2000/svg">
<g clip-path="url(#clip0)">
<path d="M166.557 182.789C165.662 183.424 165.148 183.737 164.688 184.118C151.377 195.189 135.742 200.329 118.812 202.017C112.981 202.597 107.843 198.125 107.045 192.211C106.662 189.421 107.347 186.589 108.963 184.286C110.578 181.982 113.005 180.379 115.753 179.798C119.398 179.049 123.115 178.656 126.756 177.886C139.46 175.201 149.958 168.833 158.25 158.781C160.621 155.9 163.013 153.036 165.346 150.121C168.719 145.952 172.741 142.357 177.256 139.473C181.145 136.875 185.72 135.501 190.393 135.526C195.734 135.551 201.109 135.251 206.425 135.75C218.626 136.896 227.62 146.804 227.688 159.077C227.802 180.23 227.688 201.382 227.751 222.535C227.751 224.172 227.287 224.731 225.604 224.727C206.619 224.676 187.634 224.676 168.649 224.727C166.919 224.727 166.54 224.075 166.54 222.497C166.586 210.228 166.565 197.96 166.565 185.691C166.557 184.875 166.557 184.05 166.557 182.789Z" stroke="#271E63" stroke-width="6" stroke-miterlimit="10"/>
<path d="M104.953 178.686C99.447 185.548 98.329 192.761 103.392 200.841C88.0518 198.281 74.6232 192.744 62.6543 182.535C62.5952 183.805 62.5277 184.579 62.5277 185.357C62.5277 197.554 62.4813 209.75 62.5657 221.947C62.5657 223.986 62.1438 224.744 59.912 224.731C41.2112 224.638 22.5075 224.638 3.80109 224.731C1.94057 224.731 1.26978 224.308 1.26978 222.286C1.33728 201.277 1.26978 180.268 1.33306 159.25C1.37947 145.95 11.8802 135.559 25.157 135.517C28.5321 135.517 31.9072 135.75 35.2823 135.471C45.0827 134.65 52.7779 138.897 59.3889 145.493C62.764 148.877 65.7762 152.625 68.7336 156.382C77.7156 167.805 89.1994 175.107 103.438 178.004C103.783 178.07 104.124 178.154 104.459 178.258C104.569 178.288 104.657 178.423 104.953 178.686Z" stroke="#271E63" stroke-width="6" stroke-miterlimit="10"/>
<path d="M97.9071 63.3609C93.8612 63.3609 89.866 63.5005 85.8918 63.3059C83.6009 63.1959 82.1496 63.9955 80.7363 65.7511C76.6272 70.8278 72.3534 75.8029 68.0797 80.7696C67.5903 81.3365 66.7466 81.6157 66.0673 82.0049C65.8058 81.2646 65.3248 80.5242 65.3122 79.7796C65.2404 75.0584 65.2193 70.3371 65.3122 65.6158C65.3375 63.9236 64.8312 63.2297 63.0255 63.3186C60.22 63.4582 57.406 63.3905 54.5878 63.344C46.4538 63.217 40.193 57.2604 40.0622 49.1039C39.8822 37.9015 39.8822 26.6976 40.0622 15.4923C40.1677 7.21308 46.4665 1.26917 54.7439 1.26917C76.5301 1.26917 98.3163 1.26917 120.103 1.26917C128.464 1.26917 134.729 7.50922 134.902 15.9111C134.928 17.2479 134.81 18.5975 134.936 19.9259C135.109 21.7662 134.442 22.3796 132.569 22.3542C125.473 22.2611 118.36 22.5784 111.281 22.2484C102.94 21.8677 97.7805 28.1204 97.8776 35.6677C98.0126 44.7592 97.9071 53.8422 97.9071 63.3609Z" stroke="#271E63" stroke-width="6" stroke-miterlimit="10"/>
<path d="M154.014 93.1101C153.634 92.357 153.381 91.4982 152.858 90.8637C149.955 87.3312 146.951 83.879 144.061 80.3338C143.642 79.7784 143.093 79.3353 142.463 79.0438C141.832 78.7522 141.139 78.6214 140.446 78.6628C132.227 78.7262 123.992 78.7051 115.787 78.6882C109.332 78.6882 104.818 74.4195 104.746 67.913C104.619 58.1912 104.619 48.4694 104.746 38.7476C104.826 32.3002 109.387 27.9851 115.812 27.9808C134.569 27.9639 153.327 27.9639 172.087 27.9808C178.669 27.9808 183.056 32.3087 183.12 38.9803C183.196 48.5695 183.196 58.1503 183.12 67.7226C183.065 74.4915 178.694 78.7008 171.914 78.722C167.206 78.7432 162.498 78.7855 157.794 78.6966C156.035 78.6628 155.452 79.3058 155.511 81.0319C155.613 84.0567 155.562 87.09 155.511 90.1191C155.439 90.8971 155.305 91.6682 155.111 92.4247L154.014 93.1101Z" stroke="#271E63" stroke-width="6" stroke-miterlimit="10"/>
<path d="M171.197 103.521C171.207 96.6211 173.951 90.0074 178.824 85.1352C181.236 82.7228 184.099 80.8105 187.249 79.5076C190.399 78.2047 193.774 77.5367 197.181 77.5417C200.589 77.5467 203.962 78.2246 207.108 79.5367C210.254 80.8489 213.111 82.7695 215.517 85.1891C217.923 87.6086 219.83 90.4796 221.129 93.6381C222.428 96.7967 223.094 100.181 223.089 103.598C223.064 117.981 211.352 129.548 196.873 129.493C190.039 129.447 183.501 126.689 178.689 121.822C173.877 116.955 171.184 110.375 171.197 103.521V103.521Z" stroke="#271E63" stroke-width="6" stroke-miterlimit="10"/>
<path d="M57.8277 103.454C57.8433 106.864 57.1875 110.244 55.898 113.399C54.6085 116.555 52.7107 119.424 50.3133 121.843C47.9158 124.261 45.0659 126.182 41.927 127.494C38.788 128.806 35.4217 129.484 32.0209 129.489C17.6768 129.489 6.00741 117.931 5.96944 103.657C5.95614 100.242 6.61365 96.8587 7.90443 93.699C9.1952 90.5393 11.094 87.6655 13.4923 85.2417C15.8907 82.8178 18.7416 80.8914 21.8824 79.5724C25.0232 78.2534 28.3923 77.5677 31.7973 77.5544C35.2024 77.541 38.5767 78.2004 41.7277 79.4947C44.8786 80.7891 47.7445 82.6931 50.1617 85.0981C52.5788 87.503 54.4999 90.3619 55.8152 93.5114C57.1306 96.6608 57.8144 100.039 57.8277 103.454V103.454Z" stroke="#271E63" stroke-width="6" stroke-miterlimit="10"/>
</g>
<defs>
<clipPath id="clip0">
<rect width="229" height="226" fill="white"/>
</clipPath>
</defs>
</svg>
