<svg width="208" height="230" viewBox="0 0 208 230" fill="none" xmlns="http://www.w3.org/2000/svg">
<g clip-path="url(#clip0)">
<path d="M61.2495 0C63.8775 0.666585 66.5573 1.17826 69.1195 2.03731C74.8222 3.95257 78.9828 8.06005 83.0777 12.2051C88.8133 18.026 92.7624 25.0861 96.641 32.1416C99.4053 37.1645 101.615 42.4925 104.074 47.6796C104.152 47.8108 104.242 47.9349 104.342 48.0505C105.179 45.938 105.94 43.8726 106.8 41.8493C110.016 34.2869 114.078 27.2971 120.242 21.664C124.684 17.6223 129.715 15.1484 135.869 14.6226C142.563 14.0405 148.562 15.5615 153.79 19.5187C158.491 23.0911 161.345 28.067 162.29 33.9724C163.338 40.5443 160.847 45.9803 156.916 51.0313C153.658 55.2233 149.192 57.7676 144.768 60.4198C140.753 62.8092 136.71 65.161 132.681 67.5269C132.418 67.6819 132.164 67.8508 131.68 68.156C132.197 68.1982 132.47 68.2358 132.747 68.2358H202.326C205.335 68.2358 206.943 69.1465 207.7 71.4185C207.926 72.2038 208.027 73.0195 208.001 73.836C208.02 87.2741 208.02 100.715 208.001 114.16C208.001 116.38 208.001 118.601 207.912 120.816C207.837 121.975 207.32 123.062 206.468 123.852C205.615 124.643 204.491 125.076 203.328 125.065C200.672 125.065 198.015 125.065 195.209 125.065V130.627C195.209 152.922 195.209 175.213 195.209 197.502C195.209 206.812 195.209 216.119 195.209 225.423C195.17 226.601 194.688 227.722 193.86 228.562C193.032 229.402 191.917 229.901 190.738 229.958H190.032C132.73 229.958 75.4255 229.97 18.1197 229.995C17.417 230.012 16.7183 229.886 16.0655 229.626C15.4127 229.366 14.8194 228.977 14.3213 228.481C13.8232 227.986 13.4306 227.396 13.1672 226.745C12.9037 226.094 12.7749 225.397 12.7884 224.695C12.8636 191.883 12.8793 159.071 12.8354 126.262C12.8354 125.919 12.8025 125.576 12.779 125.079C10.0334 125.079 7.3443 125.107 4.65515 125.079C3.66901 125.088 2.70761 124.77 1.92153 124.176C1.13545 123.581 0.569083 122.743 0.311138 121.793C0.105851 120.921 0.020442 120.026 0.057267 119.131C0.057267 104.109 0.10428 89.0877 0.0102539 74.066C0.0102539 70.3717 2.03182 68.1654 5.84458 68.1795C28.5237 68.2686 51.2028 68.2264 73.8819 68.2264H74.9021C74.9021 68.1654 74.9444 68.1043 74.9632 68.0433C73.172 67.1045 71.362 66.1656 69.5896 65.1845C61.2307 60.5513 53.3325 55.2796 46.7789 48.2241C42.5477 43.6613 39.2051 38.554 37.5173 32.4796C35.0115 23.4572 37.5173 15.5803 43.0554 8.43089C46.3182 4.20606 50.4929 1.3895 55.7819 0.323904C56.4166 0.215936 57.0747 0.117357 57.7235 0H61.2495ZM99.1233 220.306V125.14H22.5342V220.306H99.1233ZM185.491 220.306V125.13H108.902V220.306H185.491ZM9.71846 115.437H99.1139V77.9247H9.71846V115.437ZM108.916 77.9341V115.437H198.33V77.9247L108.916 77.9341ZM99.0433 67.6068C99.1058 66.9824 99.1058 66.3534 99.0433 65.729C98.3287 62.4431 97.7693 59.0914 96.7773 55.8711C94.154 47.3557 90.0497 39.5069 85.4566 31.9022C82.2738 26.6728 79.1568 21.3917 74.5542 17.1998C71.8133 14.7024 69.143 12.1347 65.5324 10.8625C63.0407 9.98469 60.5349 9.30872 57.8693 9.7312C54.395 10.2851 51.9738 12.4116 49.9899 15.1249C46.4921 19.9177 45.0535 25.119 46.9716 30.9446C48.6265 35.9721 51.8046 39.9951 55.5374 43.6191C60.5255 48.4448 66.2282 52.3175 72.2459 55.749C80.7619 60.581 89.7406 64.5502 99.048 67.5974L99.0433 67.6068ZM109.17 68.3766C109.604 68.2999 110.031 68.1917 110.449 68.0527C112.195 67.3958 113.904 66.6451 115.568 65.8041C124.2 60.9941 132.807 56.1434 141.388 51.2519C144.552 49.454 147.617 47.5388 149.822 44.5157C151.957 41.5912 153.508 38.5258 152.643 34.7704C152.049 32.2109 150.729 29.8768 148.84 28.0482C146.437 25.662 143.206 24.2904 139.818 24.2177C136.057 24.0909 132.394 24.4336 129.141 26.8277C124.294 30.3953 120.89 35.0849 118.164 40.3143C113.613 49.0597 110.952 58.4436 109.175 68.3766H109.17Z" fill="#E30824"/>
</g>
<defs>
<clipPath id="clip0">
<rect width="208" height="230" fill="white"/>
</clipPath>
</defs>
</svg>
