<svg width="226" height="226" viewBox="0 0 226 226" fill="none" xmlns="http://www.w3.org/2000/svg">
<path d="M139.178 179.13C139.584 180.079 139.836 180.745 140.145 181.385C142.564 186.416 145.07 191.412 147.379 196.492C148.226 198.355 149.294 199.034 151.373 198.981C161.228 198.717 168.802 202.896 173.467 211.551C175.051 214.49 175.673 218.047 176.251 221.406C176.816 224.654 175.369 225.978 172.015 225.978C149.509 225.978 127 225.978 104.489 225.978H54.4179C50.5253 225.978 49.5234 224.932 49.7264 221.123C50.3752 208.995 60.2084 199.162 72.4072 199.087C76.3131 199.061 78.2815 197.927 79.6806 194.334C81.446 189.762 83.8778 185.437 86.0051 180.997C86.2522 180.485 86.4464 179.938 86.7509 179.108H68.7264C49.7485 179.108 30.7706 179.143 11.7928 179.108C4.79302 179.103 0 174.112 0 167.042C0 115.702 0 64.3705 0 13.0459C0 4.4884 4.47525 0 13.0418 0H212.927C221.556 0 225.969 4.41337 225.969 13.0018C225.969 64.1145 225.969 115.226 225.969 166.336C225.969 172.607 223.047 177.104 217.87 178.552C216.304 178.947 214.692 179.13 213.077 179.095C189.245 179.13 165.412 179.142 141.579 179.13H139.178ZM219.005 136.179C219.049 135.261 219.115 134.475 219.115 133.69C219.115 109.128 219.115 84.569 219.115 60.013C219.115 44.2043 219.124 28.3956 219.141 12.5869C219.141 10.4906 218.863 8.47809 216.785 7.5248C215.561 7.04971 214.252 6.83332 212.941 6.88927C187.131 6.86868 161.322 6.86868 135.515 6.88927H12.8564C8.31054 6.88927 6.89382 8.29273 6.89382 12.79C6.89382 53.0988 6.89382 93.3943 6.89382 133.677V136.17L219.005 136.179ZM219.005 142.799H196.937L66.9831 142.834C47.7889 142.834 28.586 142.87 9.39625 142.79C7.32634 142.79 6.80555 143.426 6.83645 145.399C6.94237 152.164 6.87176 158.93 6.87617 165.7C6.87617 171.093 7.97071 172.201 13.2801 172.201H125.382H213.611C217.636 172.201 219.084 170.784 219.097 166.781C219.119 159.649 219.097 152.513 219.097 145.381C219.097 144.626 219.04 143.902 218.987 142.799H219.005ZM57.0969 218.903H168.916C167.654 211.431 160.826 205.831 152.944 205.756C145.741 205.685 138.534 205.756 131.318 205.756C112.128 205.756 92.9401 205.756 73.7533 205.756C65.4339 205.8 58.4739 211.277 57.0969 218.903ZM140.873 198.822C140.516 197.979 140.291 197.379 139.991 196.806C137.342 191.483 134.606 186.213 132.046 180.829C131.402 179.505 130.621 179.064 129.178 179.064C118.147 179.126 107.113 179.133 96.0766 179.086C94.8496 179.086 94.2582 179.487 93.7507 180.569C91.1556 186.085 88.481 191.562 85.8462 197.062C85.6079 197.56 85.4666 198.099 85.2151 198.8L140.873 198.822Z" fill="#271E63"/>
<path d="M130.775 72.8604C130.775 89.4017 130.775 105.943 130.775 122.484C130.775 126.068 129.773 127.065 126.212 127.065L27.6238 127.105C22.8881 127.105 21.9304 126.156 21.9304 121.452C21.9304 88.5161 21.9407 55.5805 21.9613 22.645C21.9613 19.1849 22.9764 18.1301 26.3748 18.1301C59.6787 18.1301 92.9827 18.1301 126.287 18.1301C129.817 18.1301 130.784 19.154 130.784 22.7862C130.784 39.4717 130.784 56.1602 130.784 72.8515L130.775 72.8604ZM123.837 120.044V25.2313H28.8993V120.044H123.837Z" fill="#271E63"/>
<path d="M172.566 80.1777C164.328 80.1777 156.089 80.1777 147.851 80.1777C144.607 80.1777 143.438 79.0214 143.438 75.8085C143.438 59.9204 143.438 44.0322 143.438 28.1441C143.438 24.684 144.408 23.6513 147.886 23.6424C164.578 23.616 181.271 23.616 197.966 23.6424C201.015 23.6424 202.039 24.7325 202.044 27.844C202.064 43.8027 202.064 59.76 202.044 75.7158C202.044 79.1009 200.98 80.1292 197.48 80.1292C189.205 80.1998 180.895 80.1822 172.566 80.1777ZM195.075 30.5979H150.499V73.4915H195.075V30.5979Z" fill="#271E63"/>
<path d="M172.906 94.8875C180.697 94.8875 188.494 94.8875 196.297 94.8875C199.51 94.8875 200.711 96.0218 200.711 99.2612C200.749 107.126 200.749 114.989 200.711 122.851C200.711 126.015 199.581 127.061 196.394 127.065C180.741 127.089 165.088 127.098 149.435 127.092C146.346 127.092 145.22 125.931 145.212 122.793C145.188 114.849 145.188 106.905 145.212 98.9611C145.212 95.9423 146.306 94.8566 149.343 94.8522C157.207 94.8301 165.068 94.8522 172.932 94.8522C172.928 94.852 172.924 94.8528 172.92 94.8546C172.916 94.8565 172.912 94.8593 172.91 94.8628C172.907 94.8663 172.905 94.8703 172.905 94.8747C172.904 94.879 172.904 94.8834 172.906 94.8875ZM152.044 119.982H193.605V101.689H186.627C175.828 101.689 165.028 101.719 154.228 101.64C152.485 101.64 151.876 102.139 151.986 103.878C152.119 105.925 152.039 107.991 152.044 110.056C152.048 113.335 152.044 116.623 152.044 119.982Z" fill="#271E63"/>
<path d="M101.708 157.037C101.779 154.029 103.032 151.171 105.195 149.081C107.359 146.991 110.259 145.837 113.267 145.871C119.336 145.968 124.446 151.246 124.332 157.297C124.243 160.302 122.984 163.154 120.823 165.245C118.663 167.336 115.771 168.5 112.764 168.489C106.726 168.388 101.607 163.079 101.708 157.037ZM117.42 157.129C117.394 155.983 116.93 154.89 116.125 154.075C115.319 153.259 114.232 152.783 113.086 152.742C111.902 152.758 110.771 153.236 109.933 154.073C109.096 154.911 108.618 156.042 108.602 157.226C108.617 157.813 108.748 158.391 108.987 158.927C109.226 159.463 109.568 159.947 109.995 160.35C110.421 160.753 110.924 161.068 111.472 161.277C112.021 161.485 112.605 161.583 113.192 161.565C113.763 161.553 114.325 161.428 114.847 161.197C115.369 160.967 115.84 160.635 116.233 160.222C116.626 159.808 116.934 159.321 117.137 158.788C117.341 158.255 117.437 157.686 117.42 157.116V157.129Z" fill="#271E63"/>
<path d="M76.5471 42.8406C65.9548 42.8406 55.3625 42.8406 44.7701 42.8406C42.8944 42.8406 41.4203 42.3375 40.8819 40.3471C40.211 37.8712 41.7381 35.9778 44.598 35.9337C50.1104 35.8631 55.6317 35.8984 61.1397 35.9028C76.5779 35.9028 92.0148 35.916 107.45 35.9425C107.891 35.9425 108.333 35.9425 108.774 35.9425C111.303 36.0705 112.676 37.3636 112.592 39.5306C112.508 41.6975 111.219 42.8097 108.743 42.8097C100.141 42.8406 91.5308 42.8097 82.9422 42.8362L76.5471 42.8406Z" fill="#271E63"/>
<path d="M76.7546 59.991C66.2461 59.991 55.7377 60.044 45.2336 59.9248C43.8201 59.8908 42.4681 59.3397 41.4336 58.3757C40.8069 57.7093 40.7142 55.763 41.2439 54.9686C41.6474 54.4456 42.155 54.012 42.7346 53.6952C43.3142 53.3785 43.9533 53.1854 44.6113 53.1282C51.3683 52.9517 58.1298 53.0311 64.8868 53.0311H107.212C107.799 53.0311 108.39 53.0002 108.977 53.0311C111.149 53.2076 112.649 54.7347 112.605 56.6942C112.561 58.6537 111.281 59.9116 108.938 59.9336C103.279 59.9866 97.6214 59.9601 91.9633 59.9645H76.7501C76.7501 59.9645 76.7546 59.9866 76.7546 59.991Z" fill="#271E63"/>
<path d="M76.5957 111.658C66.0858 111.658 55.5788 111.658 45.0747 111.658C43.274 111.658 41.672 111.385 40.9967 109.412C40.114 106.874 41.6322 104.818 44.5672 104.76C49.1219 104.668 53.6766 104.707 58.2489 104.703H107.834C108.2 104.703 108.571 104.681 108.938 104.703C111.118 104.871 112.627 106.362 112.618 108.326C112.618 110.409 111.294 111.601 108.787 111.614C101.148 111.65 93.5036 111.636 85.8639 111.645L76.5957 111.658Z" fill="#271E63"/>
<path d="M76.834 94.5168C66.2417 94.5168 55.6582 94.5168 45.0835 94.5168C43.2829 94.5168 41.6808 94.2829 40.9923 92.3101C40.189 89.9975 41.4689 87.8967 43.914 87.7555C46.4782 87.6143 49.0557 87.6584 51.6287 87.654C70.4447 87.654 89.2593 87.654 108.072 87.654C110.893 87.654 112.283 88.5676 112.579 90.5183C112.936 92.8927 111.502 94.4506 108.805 94.4594C99.6162 94.4947 90.4318 94.4859 81.243 94.4947L76.834 94.5168Z" fill="#271E63"/>
<path d="M76.8163 77.3929C66.3079 77.3929 55.795 77.3929 45.2866 77.3664C44.2273 77.3664 42.7621 77.3179 42.1971 76.6735C41.3778 75.6348 40.9483 74.3418 40.9834 73.0192C41.0717 71.3554 42.4708 70.5919 44.1346 70.5786C48.4687 70.5522 52.8042 70.5375 57.1411 70.5345H107.203C107.719 70.5345 108.231 70.5345 108.748 70.5345C111.263 70.636 112.645 71.9071 112.605 74.0652C112.565 76.2234 111.356 77.3046 108.783 77.3179C100.397 77.3576 92.0119 77.3488 83.6483 77.3576L76.8163 77.3929Z" fill="#271E63"/>
<path d="M167.102 57.4974L183.662 41.8873C184.249 41.3356 184.8 40.7354 185.427 40.2411C186.681 39.2658 188.022 38.8024 189.399 40.0205C190.097 40.5791 190.551 41.3862 190.666 42.2725C190.781 43.1588 190.549 44.0553 190.017 44.7737C189.709 45.1804 189.363 45.5572 188.984 45.8991C182.452 52.1278 175.91 58.3492 169.358 64.5632C166.423 67.3436 164.631 67.1318 162.464 63.7953C160.209 60.3485 158.002 56.906 155.795 53.4415C154.087 50.767 154.215 48.9046 156.122 47.6732C158.028 46.4419 159.847 46.9848 161.599 49.5004C163.351 52.016 165.156 54.6773 167.102 57.4974Z" fill="#E30824"/>
</svg>
