<svg width="185" height="79" viewBox="0 0 185 79" fill="none" xmlns="http://www.w3.org/2000/svg">
<g clip-path="url(#clip0)">
<path fill-rule="evenodd" clip-rule="evenodd" d="M3.06254 38.0371H12.8173V34.5485H3.06254V23.0699H13.4979V19.5813H0V54.3548H13.6113V50.8662H3.06254V38.0371Z" fill="#271E63"/>
<path fill-rule="evenodd" clip-rule="evenodd" d="M37.7713 44.9018C37.7713 49.5158 36.1834 51.879 32.894 51.879C29.6046 51.879 28.0166 49.5158 28.0166 44.6767V19.5813H25.1809V45.9146C25.1809 48.9531 25.8615 51.2038 27.1092 52.7793C28.4703 54.3548 30.3986 55.2551 32.894 55.2551C35.2759 55.2551 37.0908 54.4673 38.4519 52.8918C39.813 51.3163 40.4936 49.0656 40.4936 46.0272V19.5813H37.6579V44.9018H37.7713Z" fill="#271E63"/>
<path fill-rule="evenodd" clip-rule="evenodd" d="M59.5492 35.6739H54.7853V23.0699H58.9821C62.8386 23.0699 64.1998 25.0955 64.1998 29.2594C64.3132 33.5357 63.0655 35.6739 59.5492 35.6739ZM68.0563 51.0913C67.716 47.8277 67.4892 45.352 67.4892 43.5514C67.3757 41.6383 67.0354 40.1753 66.3549 39.1625C65.6743 38.1497 64.4266 37.4745 62.6118 37.2494C66.128 36.5742 67.4892 33.7608 67.4892 28.9218C67.4892 25.9958 67.2623 23.7451 66.0146 22.0571C64.7669 20.369 62.3849 19.5813 58.9821 19.5813H51.8362V54.3548H54.8987V39.1625H60.003C61.4775 39.1625 62.6118 39.7252 63.4058 40.8505C64.1998 41.9759 64.6535 43.7765 64.6535 46.2522C64.6535 47.6027 64.7669 48.8406 64.8803 50.191C64.9938 51.4289 65.2206 52.8918 65.5609 54.4673H69.1906V53.6796C68.6234 53.4545 68.2831 52.6668 68.0563 51.0913Z" fill="#271E63"/>
<path fill-rule="evenodd" clip-rule="evenodd" d="M91.4226 47.1526C91.4226 49.8535 89.1541 52.1042 86.4318 52.1042H86.205C83.4827 52.1042 81.2141 49.8535 81.2141 47.1526V26.5586C81.2141 23.8578 83.4827 21.6071 86.205 21.6071H86.3184C89.0406 21.6071 91.3092 23.8578 91.3092 26.5586V47.1526H91.4226ZM86.3184 18.4561H86.205C81.7813 18.4561 78.1516 22.0572 78.1516 26.4461V47.1526C78.1516 51.5415 81.7813 55.1427 86.205 55.1427H86.3184C90.7421 55.1427 94.3717 51.5415 94.3717 47.1526V26.5586C94.4852 22.0572 90.8555 18.4561 86.3184 18.4561Z" fill="#271E63"/>
<path fill-rule="evenodd" clip-rule="evenodd" d="M155.055 22.6198C152.787 22.6198 150.972 24.4203 150.972 26.5585V47.265C150.972 49.4032 152.787 51.2038 154.942 51.2038C157.21 51.2038 159.025 49.4032 159.025 47.265V26.5585C159.025 24.3078 157.21 22.6198 155.055 22.6198Z" fill="#E40523"/>
<path fill-rule="evenodd" clip-rule="evenodd" d="M164.243 47.1525C164.243 52.1041 160.159 56.2679 155.055 56.2679C149.837 56.2679 145.754 52.2166 145.754 47.1525V26.5585C145.754 21.6069 149.837 17.4431 154.942 17.4431H155.055C160.046 17.4431 164.243 21.4944 164.243 26.5585V47.1525ZM136.793 47.1525C136.793 52.1041 132.71 56.0428 127.833 56.0428H119.212V18.5685H128.967C133.277 18.5685 136.907 22.0571 136.907 26.446V47.1525H136.793ZM185 38.9374C185.113 25.8833 179.215 16.5428 167.419 10.5785C158.118 5.85196 148.25 3.37618 138.154 1.238C132.597 0.000109848 126.925 -0.337497 121.254 0.225181C111.839 1.12547 104.693 6.75225 102.085 15.8676C99.4757 24.7579 100.383 33.5357 101.858 42.426C103.219 50.0785 106.735 56.8306 111.499 62.9075C114.335 66.5087 118.305 68.9844 122.388 71.2352C134.525 77.7622 147.682 79.5628 161.18 78.8876C173.09 78.3249 179.669 72.473 182.958 60.5443C184.433 55.03 184.66 49.4032 185 43.5514C185 42.201 185 40.6255 185 38.9374Z" fill="#E40523"/>
<path fill-rule="evenodd" clip-rule="evenodd" d="M128.853 23.6326H124.203V51.0913H127.719C129.874 51.0913 131.689 49.2907 131.689 47.1525V26.446C131.689 24.8705 130.441 23.6326 128.853 23.6326Z" fill="#E40523"/>
</g>
<defs>
<clipPath id="clip0">
<rect width="185" height="79" fill="white"/>
</clipPath>
</defs>
</svg>
